<svg xmlns="http://www.w3.org/2000/svg" viewBox="0 0 500 500"><defs><style>.cls-1{fill:#6ad7ff;}.cls-2{opacity:0.46;}.cls-3,.cls-4{fill:#057bd3;}.cls-4,.cls-6,.cls-7{fill-rule:evenodd;}.cls-5{fill:#fff3fb;}.cls-6{fill:#5eb2ff;}.cls-7{fill:#002760;}</style></defs><g id="Layer_5" data-name="Layer 5"><circle class="cls-1" cx="250.01" cy="250.37" r="212.1"/><g class="cls-2"><rect class="cls-3" x="190.25" y="127.94" width="59.44" height="250.87" rx="29.72"/><rect class="cls-3" x="260.33" y="127.94" width="59.44" height="250.87" rx="29.72"/><path class="cls-4" d="M241,210.15H199a6,6,0,1,0,0,12.06h42a6,6,0,1,0,0-12.06Z"/><path class="cls-4" d="M241,187.86H199a6,6,0,1,0,0,12.06h42a6,6,0,1,0,0-12.06Z"/><path class="cls-4" d="M311.05,284.57h-42a6,6,0,0,0,0,12.06h42a6,6,0,0,0,0-12.06Z"/></g><rect class="cls-5" x="185.25" y="124.94" width="59.44" height="250.87" rx="29.72"/><rect class="cls-5" x="255.33" y="124.94" width="59.44" height="250.87" rx="29.72"/><path class="cls-6" d="M236,207.15H194a6,6,0,1,0,0,12.06h42a6,6,0,1,0,0-12.06Z"/><path class="cls-7" d="M236,184.86H194a6,6,0,0,0,0,12.06h42a6,6,0,1,0,0-12.06Z"/><path class="cls-6" d="M306.05,281.57h-42a6,6,0,0,0,0,12.06h42a6,6,0,0,0,0-12.06Z"/></g></svg>