<svg xmlns="http://www.w3.org/2000/svg" viewBox="0 0 500 500"><defs><style>.cls-1{fill:#cd2b80;}.cls-2{fill:#a31c69;}.cls-2,.cls-4,.cls-5,.cls-6{fill-rule:evenodd;}.cls-3{fill:#ed69b4;}.cls-4{fill:#ffeefc;}.cls-5{fill:#960f5c;}.cls-6{fill:#fffafe;}</style></defs><g id="Layer_9" data-name="Layer 9"><circle class="cls-1" cx="250" cy="250" r="212.1"/><path class="cls-2" d="M256.51,111.88a26.71,26.71,0,0,0-45.6,18.89V369.22a26.71,26.71,0,1,0,53.42,0V130.77A26.67,26.67,0,0,0,256.51,111.88Z"/><rect class="cls-3" x="203.95" y="201.61" width="53.42" height="97.54"/><path class="cls-4" d="M257.37,130.77v70.84H204V130.77a26.71,26.71,0,1,1,53.42,0Z"/><path class="cls-5" d="M257.37,299.14v70.09a26.71,26.71,0,0,1-53.42,0V299.14Z"/><polygon class="cls-2" points="299.02 272.37 260.33 253.02 260.33 253.02 299.02 233.68 299.02 272.37"/><polygon class="cls-6" points="303.02 274.37 264.33 255.02 264.33 255.02 303.02 235.68 303.02 274.37"/></g></svg>