<svg xmlns="http://www.w3.org/2000/svg" xmlns:xlink="http://www.w3.org/1999/xlink" width="1080" zoomAndPan="magnify" viewBox="0 0 810 809.999993" height="1080" preserveAspectRatio="xMidYMid meet" version="1.0"><defs><clipPath id="e19796f9c6"><path d="M 405 0 C 181.324219 0 0 181.324219 0 405 C 0 628.675781 181.324219 810 405 810 C 628.675781 810 810 628.675781 810 405 C 810 181.324219 628.675781 0 405 0 Z M 405 0 " clip-rule="nonzero"/></clipPath></defs><g clip-path="url(#e19796f9c6)"><rect x="-81" width="972" fill="#6ad7ff" y="-80.999999" height="971.999992" fill-opacity="1"/></g><path fill="#006cc4" d="M 654.992188 404.996094 C 654.992188 409.085938 654.890625 413.175781 654.691406 417.261719 C 654.488281 421.347656 654.1875 425.429688 653.789062 429.5 C 653.386719 433.570312 652.886719 437.632812 652.285156 441.679688 C 651.6875 445.726562 650.988281 449.753906 650.1875 453.769531 C 649.390625 457.78125 648.496094 461.769531 647.5 465.738281 C 646.507812 469.707031 645.414062 473.652344 644.226562 477.566406 C 643.039062 481.480469 641.757812 485.363281 640.378906 489.21875 C 639 493.070312 637.527344 496.886719 635.960938 500.664062 C 634.398438 504.445312 632.738281 508.183594 630.988281 511.882812 C 629.242188 515.582031 627.402344 519.234375 625.472656 522.84375 C 623.542969 526.453125 621.527344 530.011719 619.425781 533.519531 C 617.320312 537.027344 615.132812 540.484375 612.859375 543.886719 C 610.585938 547.289062 608.230469 550.632812 605.792969 553.917969 C 603.359375 557.203125 600.839844 560.429688 598.246094 563.59375 C 595.648438 566.753906 592.980469 569.851562 590.230469 572.882812 C 587.484375 575.914062 584.664062 578.875 581.769531 581.769531 C 578.875 584.664062 575.914062 587.484375 572.882812 590.230469 C 569.851562 592.976562 566.753906 595.648438 563.59375 598.246094 C 560.429688 600.839844 557.203125 603.355469 553.917969 605.792969 C 550.632812 608.230469 547.289062 610.585938 543.886719 612.859375 C 540.484375 615.132812 537.027344 617.320312 533.519531 619.425781 C 530.011719 621.527344 526.453125 623.542969 522.84375 625.472656 C 519.234375 627.402344 515.582031 629.242188 511.882812 630.988281 C 508.183594 632.738281 504.445312 634.398438 500.664062 635.960938 C 496.886719 637.527344 493.070312 639 489.21875 640.378906 C 485.363281 641.757812 481.480469 643.039062 477.566406 644.226562 C 473.652344 645.414062 469.707031 646.507812 465.738281 647.5 C 461.769531 648.496094 457.78125 649.390625 453.769531 650.1875 C 449.753906 650.988281 445.726562 651.6875 441.679688 652.285156 C 437.632812 652.886719 433.570312 653.386719 429.5 653.789062 C 425.429688 654.1875 421.347656 654.492188 417.261719 654.691406 C 413.175781 654.890625 409.085938 654.992188 404.996094 654.992188 C 400.90625 654.992188 396.816406 654.890625 392.730469 654.691406 C 388.644531 654.492188 384.5625 654.1875 380.492188 653.789062 C 376.421875 653.386719 372.359375 652.886719 368.3125 652.285156 C 364.265625 651.6875 360.238281 650.988281 356.222656 650.1875 C 352.210938 649.390625 348.222656 648.496094 344.25 647.5 C 340.285156 646.507812 336.339844 645.414062 332.425781 644.226562 C 328.511719 643.039062 324.628906 641.757812 320.773438 640.378906 C 316.921875 639 313.105469 637.527344 309.328125 635.960938 C 305.546875 634.398438 301.808594 632.738281 298.109375 630.988281 C 294.410156 629.242188 290.757812 627.402344 287.148438 625.472656 C 283.539062 623.542969 279.980469 621.527344 276.472656 619.425781 C 272.964844 617.320312 269.507812 615.132812 266.105469 612.859375 C 262.703125 610.585938 259.359375 608.230469 256.074219 605.792969 C 252.789062 603.355469 249.5625 600.839844 246.398438 598.246094 C 243.238281 595.648438 240.140625 592.976562 237.109375 590.230469 C 234.078125 587.484375 231.113281 584.664062 228.222656 581.769531 C 225.328125 578.875 222.507812 575.914062 219.761719 572.882812 C 217.011719 569.851562 214.34375 566.753906 211.746094 563.59375 C 209.152344 560.429688 206.632812 557.203125 204.199219 553.917969 C 201.761719 550.632812 199.40625 547.289062 197.132812 543.886719 C 194.859375 540.484375 192.671875 537.027344 190.566406 533.519531 C 188.464844 530.011719 186.449219 526.453125 184.519531 522.84375 C 182.589844 519.234375 180.75 515.582031 179.003906 511.882812 C 177.253906 508.183594 175.59375 504.445312 174.03125 500.664062 C 172.464844 496.886719 170.992188 493.070312 169.613281 489.21875 C 168.234375 485.363281 166.953125 481.480469 165.765625 477.566406 C 164.578125 473.652344 163.484375 469.707031 162.492188 465.738281 C 161.496094 461.769531 160.601562 457.78125 159.804688 453.769531 C 159.003906 449.753906 158.304688 445.726562 157.707031 441.679688 C 157.105469 437.632812 156.605469 433.570312 156.203125 429.5 C 155.804688 425.429688 155.5 421.347656 155.300781 417.261719 C 155.101562 413.175781 155 409.085938 155 404.996094 C 155 400.90625 155.101562 396.816406 155.300781 392.730469 C 155.5 388.644531 155.804688 384.5625 156.203125 380.492188 C 156.605469 376.421875 157.105469 372.359375 157.707031 368.3125 C 158.304688 364.265625 159.003906 360.238281 159.804688 356.222656 C 160.601562 352.210938 161.496094 348.222656 162.492188 344.25 C 163.484375 340.285156 164.578125 336.339844 165.765625 332.425781 C 166.953125 328.511719 168.234375 324.628906 169.613281 320.773438 C 170.992188 316.921875 172.464844 313.105469 174.03125 309.328125 C 175.59375 305.546875 177.253906 301.808594 179.003906 298.109375 C 180.75 294.410156 182.589844 290.757812 184.519531 287.148438 C 186.449219 283.539062 188.464844 279.980469 190.566406 276.472656 C 192.671875 272.964844 194.859375 269.507812 197.132812 266.105469 C 199.40625 262.703125 201.761719 259.359375 204.199219 256.074219 C 206.632812 252.789062 209.152344 249.5625 211.746094 246.398438 C 214.34375 243.238281 217.011719 240.140625 219.761719 237.109375 C 222.507812 234.078125 225.328125 231.113281 228.222656 228.222656 C 231.113281 225.328125 234.078125 222.507812 237.109375 219.761719 C 240.140625 217.011719 243.238281 214.34375 246.398438 211.746094 C 249.5625 209.152344 252.789062 206.632812 256.074219 204.199219 C 259.359375 201.761719 262.703125 199.40625 266.105469 197.132812 C 269.507812 194.859375 272.964844 192.671875 276.472656 190.566406 C 279.980469 188.464844 283.539062 186.449219 287.148438 184.519531 C 290.757812 182.589844 294.410156 180.75 298.109375 179.003906 C 301.808594 177.253906 305.546875 175.59375 309.328125 174.03125 C 313.105469 172.464844 316.921875 170.992188 320.773438 169.613281 C 324.628906 168.234375 328.511719 166.953125 332.425781 165.765625 C 336.339844 164.578125 340.285156 163.484375 344.25 162.492188 C 348.222656 161.496094 352.210938 160.601562 356.222656 159.804688 C 360.238281 159.003906 364.265625 158.304688 368.3125 157.707031 C 372.359375 157.105469 376.421875 156.605469 380.492188 156.203125 C 384.5625 155.804688 388.644531 155.5 392.730469 155.300781 C 396.816406 155.101562 400.90625 155 404.996094 155 C 409.085938 155 413.175781 155.101562 417.261719 155.300781 C 421.347656 155.5 425.429688 155.804688 429.5 156.203125 C 433.570312 156.605469 437.632812 157.105469 441.679688 157.707031 C 445.726562 158.304688 449.753906 159.003906 453.769531 159.804688 C 457.78125 160.601562 461.769531 161.496094 465.738281 162.492188 C 469.707031 163.484375 473.652344 164.578125 477.566406 165.765625 C 481.480469 166.953125 485.363281 168.234375 489.21875 169.613281 C 493.070312 170.992188 496.886719 172.464844 500.664062 174.03125 C 504.445312 175.59375 508.183594 177.253906 511.882812 179.003906 C 515.582031 180.75 519.234375 182.589844 522.84375 184.519531 C 526.453125 186.449219 530.011719 188.464844 533.519531 190.566406 C 537.027344 192.671875 540.484375 194.859375 543.886719 197.132812 C 547.289062 199.40625 550.632812 201.761719 553.917969 204.199219 C 557.203125 206.632812 560.429688 209.152344 563.59375 211.746094 C 566.753906 214.34375 569.851562 217.011719 572.882812 219.761719 C 575.914062 222.507812 578.875 225.328125 581.769531 228.222656 C 584.664062 231.113281 587.484375 234.078125 590.230469 237.109375 C 592.980469 240.140625 595.648438 243.238281 598.246094 246.398438 C 600.839844 249.5625 603.359375 252.789062 605.792969 256.074219 C 608.230469 259.359375 610.585938 262.703125 612.859375 266.105469 C 615.132812 269.507812 617.320312 272.964844 619.425781 276.472656 C 621.527344 279.980469 623.542969 283.539062 625.472656 287.148438 C 627.402344 290.757812 629.242188 294.410156 630.988281 298.109375 C 632.738281 301.808594 634.398438 305.546875 635.960938 309.328125 C 637.527344 313.105469 639 316.921875 640.378906 320.773438 C 641.757812 324.628906 643.039062 328.511719 644.226562 332.425781 C 645.414062 336.339844 646.507812 340.285156 647.5 344.25 C 648.496094 348.222656 649.390625 352.210938 650.1875 356.222656 C 650.988281 360.238281 651.6875 364.265625 652.285156 368.3125 C 652.886719 372.359375 653.386719 376.421875 653.789062 380.492188 C 654.1875 384.5625 654.488281 388.644531 654.691406 392.730469 C 654.890625 396.816406 654.992188 400.90625 654.992188 404.996094 Z M 654.992188 404.996094 " fill-opacity="1" fill-rule="nonzero"/><path fill="#f2f2f2" d="M 542.253906 357.769531 C 555.632812 344.382812 555.632812 322.6875 542.246094 309.304688 C 528.859375 295.925781 507.160156 295.929688 493.78125 309.320312 L 375.175781 427.976562 L 315.96875 368.769531 C 302.585938 355.386719 280.886719 355.386719 267.503906 368.769531 C 254.121094 382.152344 254.121094 403.851562 267.503906 417.234375 L 350.949219 500.679688 C 357.378906 507.109375 366.097656 510.71875 375.183594 510.71875 C 384.277344 510.71875 392.996094 507.101562 399.421875 500.671875 Z M 542.253906 357.769531 " fill-opacity="1" fill-rule="nonzero"/></svg>