<svg xmlns="http://www.w3.org/2000/svg" viewBox="0 0 500 500"><defs><style>.cls-1{fill:#cd2b80;}.cls-2{opacity:0.4;}.cls-3{fill:#870050;}.cls-4{fill:#ffa6d5;}.cls-5{fill:#fff3fa;}.cls-6{fill:#750048;}.cls-7{fill:#ffeefc;}.cls-8{fill:none;stroke:#ffc2ee;stroke-linecap:round;stroke-miterlimit:10;stroke-width:14px;}.cls-9{fill:#fff0fc;fill-rule:evenodd;}.cls-10{fill:#ff71d7;}.cls-11{fill:#f9a7d8;}.cls-12{fill:#fc75cc;}.cls-13{fill:#ef3793;}</style></defs><g id="Layer_10" data-name="Layer 10"><circle class="cls-1" cx="250" cy="255.92" r="212.1"/><g class="cls-2"><rect class="cls-3" x="188.92" y="192.72" width="101.72" height="10.6" rx="5.3"/><rect class="cls-3" x="188.92" y="224.47" width="101.72" height="10.6" rx="5.3"/><rect class="cls-3" x="190.05" y="326.3" width="99.45" height="10.6" rx="5.3"/><rect class="cls-3" x="187.36" y="288.54" width="103.28" height="10.6" rx="5.3"/></g><rect class="cls-4" x="188.92" y="189.72" width="101.72" height="10.6" rx="5.3"/><rect class="cls-4" x="188.92" y="221.47" width="101.72" height="10.6" rx="5.3"/><rect class="cls-4" x="190.05" y="323.3" width="99.45" height="10.6" rx="5.3"/><rect class="cls-4" x="187.36" y="285.54" width="103.28" height="10.6" rx="5.3"/><path class="cls-5" d="M290.66,351.1a4,4,0,0,1-4-4V311.27a47.05,47.05,0,0,0-32.55-44.62,57,57,0,0,0,11.06-4,54.62,54.62,0,0,1,29.49,48.64V347.1A4,4,0,0,1,290.66,351.1Z"/><path class="cls-6" d="M265.18,255.92l-1.79.9a52,52,0,0,1-23.2,5.58v8a41,41,0,0,1,40.47,40.87V347.1a10,10,0,0,0,20,0V311.27A60.6,60.6,0,0,0,267,256.82l-1.8-.9Z"/><path class="cls-5" d="M214.39,258.19a54.62,54.62,0,0,1-29.49-48.64V173.71a4,4,0,0,1,8,0v35.84a47.06,47.06,0,0,0,32.54,44.62A57.17,57.17,0,0,0,214.39,258.19Z"/><path class="cls-6" d="M188.89,163.71a10,10,0,0,0-10,10v35.84A60.6,60.6,0,0,0,212.58,264l1.8.9,1.79-.9a52,52,0,0,1,23.19-5.59v-8a41,41,0,0,1-40.48-40.86V173.71a10,10,0,0,0-10-10Z"/><path class="cls-7" d="M290.61,163.71a10,10,0,0,0-10,10v35.84a41,41,0,0,1-40.38,40.86h-.92a59.84,59.84,0,0,0-26.73,6.44,60.59,60.59,0,0,0-33.64,54.42V347.1a10,10,0,0,0,20,0V311.27a41,41,0,0,1,40.38-40.87h.94A59.92,59.92,0,0,0,267,264a60.58,60.58,0,0,0,33.63-54.42V173.71A10,10,0,0,0,290.61,163.71Z"/><line class="cls-8" x1="282.69" y1="254.2" x2="347.78" y2="319.29"/><path class="cls-9" d="M282.69,291.89a37.69,37.69,0,1,1,37.69-37.69A37.73,37.73,0,0,1,282.69,291.89Z"/><path class="cls-10" d="M282.69,222.51A31.69,31.69,0,1,1,251,254.2a31.72,31.72,0,0,1,31.69-31.69m0-12a43.69,43.69,0,1,0,43.69,43.69,43.69,43.69,0,0,0-43.69-43.69Z"/><rect class="cls-11" x="269.7" y="234.54" width="26.09" height="7.52" rx="3.76"/><rect class="cls-12" x="269.6" y="245.19" width="26.09" height="7.52" rx="3.76"/><rect class="cls-12" x="269.6" y="266.48" width="26.09" height="7.52" rx="3.76"/><rect class="cls-13" x="269.6" y="255.84" width="26.09" height="7.52" rx="3.76"/></g></svg>