<svg xmlns="http://www.w3.org/2000/svg" xmlns:xlink="http://www.w3.org/1999/xlink" width="1080" zoomAndPan="magnify" viewBox="0 0 810 809.999993" height="1080" preserveAspectRatio="xMidYMid meet" version="1.0"><defs><clipPath id="9426093c6f"><path d="M 405 0 C 181.324219 0 0 181.324219 0 405 C 0 628.675781 181.324219 810 405 810 C 628.675781 810 810 628.675781 810 405 C 810 181.324219 628.675781 0 405 0 Z M 405 0 " clip-rule="nonzero"/></clipPath><clipPath id="b8898fb3b4"><path d="M 375 272.554688 L 435 272.554688 L 435 460 L 375 460 Z M 375 272.554688 " clip-rule="nonzero"/></clipPath></defs><g clip-path="url(#9426093c6f)"><rect x="-81" width="972" fill="#cd2b80" y="-80.999999" height="971.999992" fill-opacity="1"/></g><path fill="#950e5c" d="M 417.753906 144.609375 C 393.511719 141 369.339844 150.980469 353.695312 168.5 C 348.035156 174.796875 345.0625 182.515625 341.308594 189.519531 C 337.097656 197.414062 332.25 204.597656 327.933594 212.417969 C 290.808594 279.875 255.132812 348.496094 218.042969 416.058594 C 206.082031 437.71875 194.507812 459.554688 182.652344 481.109375 C 176.527344 492.257812 168.53125 503.191406 165.488281 515.507812 C 155.152344 556.738281 184.351562 598.324219 224.695312 604.445312 C 235.03125 605.96875 246.78125 604.445312 257.21875 604.445312 C 279.480469 604.445312 301.777344 604.445312 324.144531 604.445312 C 393.230469 604.445312 462.382812 604.445312 531.464844 604.445312 C 550.507812 604.445312 571.882812 607.242188 590.675781 604.445312 C 609.539062 601.578125 629.214844 590.078125 640.363281 572.914062 C 650.59375 557.199219 654.839844 535.007812 649.882812 515.613281 C 647.902344 507.617188 643.230469 500.890625 639.375 493.601562 C 633.429688 482.382812 627.410156 471.339844 621.21875 460.191406 C 578.359375 382.226562 537.058594 303.089844 494.09375 225.019531 C 487.546875 213.054688 480.433594 201.660156 474.0625 189.628906 C 470.273438 182.515625 467.335938 174.90625 461.675781 168.605469 C 449.996094 155.546875 433.820312 147.015625 417.71875 144.679688 Z M 417.753906 144.609375 " fill-opacity="1" fill-rule="nonzero"/><path fill="#950e5c" d="M 442.707031 518.660156 C 442.707031 507.617188 438.847656 498.273438 431.132812 490.628906 C 423.417969 482.984375 413.96875 479.234375 402.75 479.234375 C 391.421875 479.234375 381.902344 483.019531 374.1875 490.628906 C 366.472656 498.273438 362.613281 507.617188 362.613281 518.660156 C 362.613281 529.878906 366.472656 539.21875 374.1875 546.863281 C 381.902344 554.507812 391.421875 558.261719 402.75 558.261719 C 413.96875 558.261719 423.417969 554.472656 431.132812 546.863281 C 438.847656 539.21875 442.707031 529.878906 442.707031 518.660156 Z M 426.992188 462.777344 C 429.222656 437.964844 433.292969 409.335938 439.203125 376.703125 C 445.148438 344.109375 448.085938 323.6875 448.085938 315.441406 C 448.085938 298.808594 444.121094 285.714844 436.121094 276.195312 C 428.230469 266.671875 417.152344 261.824219 403.136719 261.824219 C 389.015625 261.824219 377.976562 266.496094 370.152344 275.945312 C 362.332031 285.394531 358.367188 298.492188 358.367188 315.476562 C 358.367188 323.757812 361.339844 344.144531 367.25 376.738281 C 373.269531 409.335938 377.410156 437.964844 379.636719 462.777344 L 427.0625 462.777344 Z M 426.992188 462.777344 " fill-opacity="1" fill-rule="nonzero"/><g clip-path="url(#b8898fb3b4)"><path fill="#ffffff" d="M 405 459.449219 C 393.273438 459.449219 383.605469 450.882812 383.007812 439.964844 L 375.039062 294.398438 C 374.398438 282.664062 384.429688 272.824219 397.03125 272.824219 L 412.964844 272.824219 C 425.566406 272.824219 435.597656 282.664062 434.957031 294.398438 L 426.988281 439.964844 C 426.390625 450.882812 416.722656 459.449219 405 459.449219 Z M 405 459.449219 " fill-opacity="1" fill-rule="nonzero"/></g><path fill="#ffffff" d="M 430.964844 513.859375 C 430.964844 514.710938 430.925781 515.558594 430.839844 516.402344 C 430.757812 517.25 430.632812 518.089844 430.464844 518.925781 C 430.300781 519.757812 430.09375 520.582031 429.847656 521.398438 C 429.601562 522.210938 429.316406 523.011719 428.988281 523.796875 C 428.664062 524.582031 428.300781 525.347656 427.898438 526.097656 C 427.5 526.851562 427.0625 527.578125 426.589844 528.285156 C 426.117188 528.992188 425.609375 529.675781 425.070312 530.332031 C 424.53125 530.988281 423.960938 531.617188 423.359375 532.21875 C 422.757812 532.820312 422.128906 533.390625 421.472656 533.933594 C 420.816406 534.472656 420.132812 534.976562 419.425781 535.449219 C 418.71875 535.921875 417.988281 536.359375 417.238281 536.757812 C 416.488281 537.160156 415.722656 537.523438 414.9375 537.847656 C 414.148438 538.175781 413.351562 538.460938 412.535156 538.707031 C 411.722656 538.953125 410.898438 539.160156 410.066406 539.328125 C 409.230469 539.492188 408.390625 539.617188 407.542969 539.699219 C 406.699219 539.785156 405.847656 539.824219 405 539.824219 C 404.148438 539.824219 403.300781 539.785156 402.453125 539.699219 C 401.605469 539.617188 400.765625 539.492188 399.933594 539.328125 C 399.097656 539.160156 398.273438 538.953125 397.460938 538.707031 C 396.648438 538.460938 395.847656 538.175781 395.0625 537.847656 C 394.277344 537.523438 393.507812 537.160156 392.757812 536.757812 C 392.007812 536.359375 391.277344 535.921875 390.570312 535.449219 C 389.863281 534.976562 389.183594 534.472656 388.523438 533.933594 C 387.867188 533.390625 387.238281 532.820312 386.636719 532.21875 C 386.035156 531.617188 385.464844 530.988281 384.925781 530.332031 C 384.386719 529.675781 383.878906 528.992188 383.40625 528.285156 C 382.933594 527.578125 382.5 526.851562 382.097656 526.101562 C 381.695312 525.347656 381.332031 524.582031 381.007812 523.796875 C 380.683594 523.011719 380.398438 522.210938 380.148438 521.398438 C 379.902344 520.582031 379.695312 519.757812 379.53125 518.925781 C 379.363281 518.089844 379.238281 517.25 379.15625 516.402344 C 379.074219 515.558594 379.03125 514.710938 379.03125 513.859375 C 379.03125 513.007812 379.074219 512.160156 379.15625 511.3125 C 379.238281 510.46875 379.363281 509.628906 379.53125 508.792969 C 379.695312 507.957031 379.902344 507.136719 380.148438 506.320312 C 380.398438 505.507812 380.683594 504.707031 381.007812 503.921875 C 381.332031 503.136719 381.695312 502.367188 382.097656 501.617188 C 382.5 500.867188 382.933594 500.140625 383.40625 499.433594 C 383.878906 498.726562 384.386719 498.042969 384.925781 497.386719 C 385.464844 496.726562 386.035156 496.097656 386.636719 495.496094 C 387.238281 494.894531 387.867188 494.324219 388.523438 493.785156 C 389.183594 493.246094 389.863281 492.742188 390.570312 492.269531 C 391.277344 491.796875 392.007812 491.359375 392.757812 490.957031 C 393.507812 490.558594 394.277344 490.195312 395.0625 489.867188 C 395.847656 489.542969 396.648438 489.257812 397.460938 489.011719 C 398.273438 488.761719 399.097656 488.554688 399.933594 488.390625 C 400.765625 488.226562 401.605469 488.101562 402.453125 488.015625 C 403.300781 487.933594 404.148438 487.890625 405 487.890625 C 405.847656 487.890625 406.699219 487.933594 407.542969 488.015625 C 408.390625 488.101562 409.230469 488.226562 410.066406 488.390625 C 410.898438 488.558594 411.722656 488.761719 412.535156 489.011719 C 413.351562 489.257812 414.148438 489.542969 414.9375 489.867188 C 415.722656 490.195312 416.488281 490.558594 417.238281 490.957031 C 417.988281 491.359375 418.71875 491.796875 419.425781 492.269531 C 420.132812 492.742188 420.816406 493.246094 421.472656 493.785156 C 422.128906 494.324219 422.757812 494.894531 423.359375 495.496094 C 423.960938 496.097656 424.53125 496.726562 425.070312 497.386719 C 425.609375 498.042969 426.117188 498.726562 426.589844 499.433594 C 427.0625 500.140625 427.5 500.867188 427.898438 501.617188 C 428.300781 502.367188 428.664062 503.136719 428.988281 503.921875 C 429.316406 504.707031 429.601562 505.507812 429.847656 506.320312 C 430.09375 507.136719 430.300781 507.957031 430.464844 508.792969 C 430.632812 509.628906 430.757812 510.46875 430.839844 511.3125 C 430.925781 512.160156 430.964844 513.007812 430.964844 513.859375 Z M 430.964844 513.859375 " fill-opacity="1" fill-rule="nonzero"/></svg>