<svg xmlns="http://www.w3.org/2000/svg" viewBox="0 0 500 500"><defs><style>.cls-1{fill:#6ad7ff;}.cls-2{opacity:0.4;}.cls-3{fill:#009eff;}.cls-4{fill:#e9f4ff;}.cls-5{fill:#006cc4;}.cls-6{fill:#002760;}</style></defs><g id="Layer_6" data-name="Layer 6"><circle class="cls-1" cx="250" cy="250" r="212.1"/><g class="cls-2"><rect class="cls-3" x="199.14" y="182.31" width="101.72" height="10.6" rx="5.3"/><rect class="cls-3" x="199.14" y="214.07" width="101.72" height="10.6" rx="5.3"/><rect class="cls-3" x="200.27" y="315.89" width="99.45" height="10.6" rx="5.3"/><rect class="cls-3" x="197.58" y="278.14" width="103.28" height="10.6" rx="5.3"/></g><rect class="cls-4" x="199.14" y="179.31" width="101.72" height="10.6" rx="5.3"/><rect class="cls-4" x="199.14" y="211.07" width="101.72" height="10.6" rx="5.3"/><rect class="cls-4" x="200.27" y="312.89" width="99.45" height="10.6" rx="5.3"/><rect class="cls-4" x="197.58" y="275.14" width="103.28" height="10.6" rx="5.3"/><path class="cls-5" d="M277.2,246.41l-1.8-.9-1.79.91a52,52,0,0,1-23.2,5.58v8a41,41,0,0,1,40.47,40.86v35.83a10,10,0,0,0,20,0V300.86A60.6,60.6,0,0,0,277.2,246.41Z"/><path class="cls-5" d="M209.12,199.15V163.31a10,10,0,0,0-20,0v35.84A60.6,60.6,0,0,0,222.8,253.6l1.8.9,1.8-.91A51.76,51.76,0,0,1,249.58,248v-8A41,41,0,0,1,209.12,199.15Z"/><path class="cls-6" d="M300.83,153.31a10,10,0,0,0-10,10v35.84A41,41,0,0,1,250.46,240h-.93a59.83,59.83,0,0,0-26.73,6.43,60.58,60.58,0,0,0-33.63,54.42v35.83a10,10,0,0,0,20,0V300.86A41,41,0,0,1,249.54,260h.94a59.92,59.92,0,0,0,26.72-6.43,60.58,60.58,0,0,0,33.63-54.42V163.31A10,10,0,0,0,300.83,153.31Z"/></g></svg>