<svg xmlns="http://www.w3.org/2000/svg" viewBox="0 0 500 500"><defs><style>.cls-1{fill:#cd2b80;}.cls-2{opacity:0.46;}.cls-3{fill:#8c004d;}.cls-4{fill:#fff3fb;}.cls-5{fill:#d62b86;}.cls-5,.cls-6{fill-rule:evenodd;}.cls-6{fill:#9e2295;}.cls-7,.cls-8{fill:none;stroke:#fff;stroke-linecap:round;stroke-miterlimit:10;}.cls-7{stroke-width:4px;}.cls-8{stroke-width:8px;}</style></defs><g id="Layer_5_copy" data-name="Layer 5 copy"><circle class="cls-1" cx="250" cy="255.16" r="212.1"/><g class="cls-2"><rect class="cls-3" x="226.74" y="137.21" width="59.44" height="250.87" rx="29.72"/></g><rect class="cls-4" x="221.74" y="134.21" width="59.44" height="250.87" rx="29.72"/><path class="cls-5" d="M272.46,211.43h-42a6,6,0,0,0,0,12.06h42a6,6,0,1,0,0-12.06Z"/><path class="cls-6" d="M272.46,324.14h-42a6,6,0,1,0,0,12.06h42a6,6,0,1,0,0-12.06Z"/><line class="cls-7" x1="267.66" y1="330.17" x2="305.99" y2="330.17"/><circle class="cls-8" cx="319.24" cy="330.17" r="12.19"/><line class="cls-7" x1="232.34" y1="217.72" x2="194.01" y2="217.72"/><circle class="cls-8" cx="180.76" cy="217.72" r="12.19"/></g></svg>