<svg xmlns="http://www.w3.org/2000/svg" viewBox="0 0 500 500"><defs><style>.cls-1{fill:#fe83c2;}.cls-2{opacity:0.45;}.cls-3{fill:#6d0340;}.cls-4{fill:#bf0467;}.cls-5{fill:#e50670;}.cls-6{fill:#960f5c;}</style></defs><g id="Layer_1" data-name="Layer 1"><path class="cls-1" d="M250,57A193,193,0,0,1,386.49,386.49a193,193,0,0,1-273-273A191.75,191.75,0,0,1,250,57m0-19C132.9,38,38,132.9,38,250S132.9,462,250,462,462,367.1,462,250,367.1,38,250,38Z"/><g class="cls-2"><path class="cls-3" d="M274.49,164.38h-39a6.89,6.89,0,0,0-6.9,6.89V338.73a6.89,6.89,0,0,0,6.9,6.89h39a6.89,6.89,0,0,0,6.9-6.89V171.27A6.89,6.89,0,0,0,274.49,164.38Z"/><path class="cls-3" d="M338.73,228.61H171.27a6.89,6.89,0,0,0-6.89,6.9v39a6.89,6.89,0,0,0,6.89,6.9H338.73a6.89,6.89,0,0,0,6.89-6.9v-39A6.89,6.89,0,0,0,338.73,228.61Z"/><rect class="cls-3" x="228.61" y="228.61" width="52.78" height="52.78"/></g><path class="cls-4" d="M269.49,159.38h-39a6.89,6.89,0,0,0-6.9,6.89V333.73a6.89,6.89,0,0,0,6.9,6.89h39a6.89,6.89,0,0,0,6.9-6.89V166.27A6.89,6.89,0,0,0,269.49,159.38Z"/><path class="cls-5" d="M333.73,223.61H166.27a6.89,6.89,0,0,0-6.89,6.9v39a6.89,6.89,0,0,0,6.89,6.9H333.73a6.89,6.89,0,0,0,6.89-6.9v-39A6.89,6.89,0,0,0,333.73,223.61Z"/><rect class="cls-6" x="223.61" y="223.61" width="52.78" height="52.78"/></g></svg>