<svg xmlns="http://www.w3.org/2000/svg" viewBox="0 0 500 500"><defs><style>.cls-1{fill:#6ad7ff;}.cls-2,.cls-3{fill:#1c64af;}.cls-2{opacity:0.5;}.cls-4{fill:#1fb0e8;}.cls-5{fill:#19568e;}</style></defs><g id="Layer_14" data-name="Layer 14"><path class="cls-1" d="M250,58.76a191.23,191.23,0,1,1-135.23,56A190,190,0,0,1,250,58.76m0-19C133.89,39.76,39.76,133.89,39.76,250S133.89,460.24,250,460.24,460.24,366.11,460.24,250,366.11,39.76,250,39.76Z"/><path class="cls-2" d="M345.67,148.47a44.85,44.85,0,0,0-63.27,4.39l-58.72,67.48L167.6,284.68a44.84,44.84,0,1,0,67.66,58.87l56.08-64.34,58.72-67.48a44.63,44.63,0,0,0,10.85-25.65c.11-1.25.16-2.51.16-3.77A44.73,44.73,0,0,0,345.67,148.47Z"/><path class="cls-3" d="M355.24,180.61c0,1.26-.05,2.52-.16,3.77-17.58,20.73-47.51,55.92-75.31,88.14l-61.92-53.88,58.72-67.48a44.84,44.84,0,0,1,78.67,29.45Z"/><path class="cls-4" d="M279.77,272.52c-27.19,31.53-52.34,60.22-61.92,69.8-14.8,14.8-30.58,19-43.06,19.43a44.86,44.86,0,0,1-19-71.77l62.08-71.34Z"/><path class="cls-5" d="M279.77,272.52c-27.19,31.53-52.34,60.22-61.92,69.8-14.8,14.8-30.58,19-43.06,19.43a44.85,44.85,0,0,0,48.64-12.9l62.08-71.34L344.23,210a44.63,44.63,0,0,0,10.85-25.65C337.5,205.11,307.57,240.3,279.77,272.52Z"/></g></svg>