<svg xmlns="http://www.w3.org/2000/svg" viewBox="0 0 500 500"><defs><style>.cls-1{fill:#dbbbef;}.cls-2{opacity:0.4;}.cls-3{fill:#41256d;}.cls-3,.cls-4,.cls-5,.cls-6{fill-rule:evenodd;}.cls-4{fill:#55287c;}.cls-5{fill:#7f5db5;}.cls-6{fill:#61368e;}</style></defs><g id="Layer_4_copy" data-name="Layer 4 copy"><path class="cls-1" d="M250,57.47a193.59,193.59,0,0,1,75.33,371.86A193.59,193.59,0,0,1,174.67,72.67,192.25,192.25,0,0,1,250,57.47m0-19C132.62,38.47,37.47,133.62,37.47,251S132.62,463.53,250,463.53,462.53,368.38,462.53,251,367.38,38.47,250,38.47Z"/><g class="cls-2"><path class="cls-3" d="M319.8,313.57a5,5,0,0,1-7.11,0l-14.1-14.06a5,5,0,0,1,7.12-7.12l14.09,14.07A5,5,0,0,1,319.8,313.57Z"/><path class="cls-3" d="M348.61,247.82a5,5,0,0,1-5,5H324a5,5,0,0,1,0-10.07h19.63A5,5,0,0,1,348.61,247.82Z"/><path class="cls-3" d="M322.49,186.49l-14.11,14.1a5,5,0,0,1-7.12-7.13l14.1-14.08a5,5,0,0,1,7.13,7.11Z"/><path class="cls-3" d="M259,158.28V178.2a5,5,0,0,1-10.06,0V158.28a5,5,0,1,1,10.06,0Z"/><path class="cls-3" d="M206.75,200.59a5,5,0,0,1-3.55,1.47,5,5,0,0,1-3.56-1.47l-14.08-14.1a5,5,0,0,1,7.11-7.11l14.08,14.08A5,5,0,0,1,206.75,200.59Z"/><path class="cls-3" d="M189.47,247.82a5,5,0,0,1-5,5h-20a5,5,0,0,1,0-10.07h20A5,5,0,0,1,189.47,247.82Z"/><path class="cls-3" d="M206.74,302.17l-14.07,14.09a5,5,0,0,1-7.11-7.11l14.07-14.09a5,5,0,0,1,7.11,7.11Z"/><path class="cls-3" d="M277.56,340.94a5,5,0,0,1-5,5H253.85V335.91h18.69A5,5,0,0,1,277.56,340.94Z"/><path class="cls-3" d="M282.9,324.2a5,5,0,0,1-5,5h-24V319.18h24A5,5,0,0,1,282.9,324.2Z"/><path class="cls-3" d="M308,247.62a53.82,53.82,0,0,1-14.93,37.29,27,27,0,0,0-7.91,18.49v2.89a5,5,0,0,1-5,5H253.85V193.49A54.09,54.09,0,0,1,308,247.62Z"/><path class="cls-3" d="M253.85,193.49V311.32H227.52a5,5,0,0,1-5-5V303.4c0-6.57-2.81-13.15-7.92-18.51A54.13,54.13,0,0,1,243,194.5,56.86,56.86,0,0,1,253.85,193.49Z"/><path class="cls-3" d="M253.85,319.18v10.05h-24a5,5,0,1,1,0-10.05Z"/><path class="cls-3" d="M253.85,335.91V346H235.17a5,5,0,0,1,0-10.07Z"/></g><path class="cls-4" d="M315.8,309.57a5,5,0,0,1-7.11,0l-14.1-14.06a5,5,0,0,1,7.12-7.12l14.09,14.07A5,5,0,0,1,315.8,309.57Z"/><path class="cls-5" d="M344.61,243.82a5,5,0,0,1-5,5H320a5,5,0,0,1,0-10.07h19.63A5,5,0,0,1,344.61,243.82Z"/><path class="cls-4" d="M318.49,182.49l-14.11,14.1a5,5,0,0,1-7.12-7.13l14.1-14.08a5,5,0,0,1,7.13,7.11Z"/><path class="cls-5" d="M255,154.28V174.2a5,5,0,0,1-10.06,0V154.28a5,5,0,1,1,10.06,0Z"/><path class="cls-4" d="M202.75,196.59a5,5,0,0,1-3.55,1.47,5,5,0,0,1-3.56-1.47l-14.08-14.1a5,5,0,0,1,7.11-7.11l14.08,14.08A5,5,0,0,1,202.75,196.59Z"/><path class="cls-5" d="M185.47,243.82a5,5,0,0,1-5,5h-20a5,5,0,0,1,0-10.07h20A5,5,0,0,1,185.47,243.82Z"/><path class="cls-4" d="M202.74,298.17l-14.07,14.09a5,5,0,0,1-7.11-7.11l14.07-14.09a5,5,0,0,1,7.11,7.11Z"/><path class="cls-4" d="M273.56,336.94a5,5,0,0,1-5,5H249.85V331.91h18.69A5,5,0,0,1,273.56,336.94Z"/><path class="cls-4" d="M278.9,320.2a5,5,0,0,1-5,5h-24V315.18h24A5,5,0,0,1,278.9,320.2Z"/><path class="cls-4" d="M304,243.62a53.82,53.82,0,0,1-14.93,37.29,27,27,0,0,0-7.91,18.49v2.89a5,5,0,0,1-5,5H249.85V189.49A54.09,54.09,0,0,1,304,243.62Z"/><path class="cls-6" d="M249.85,189.49V307.32H223.52a5,5,0,0,1-5-5V299.4c0-6.57-2.81-13.15-7.92-18.51A54.13,54.13,0,0,1,239,190.5,56.86,56.86,0,0,1,249.85,189.49Z"/><path class="cls-6" d="M249.85,315.18v10.05h-24a5,5,0,1,1,0-10.05Z"/><path class="cls-6" d="M249.85,331.91V342H231.17a5,5,0,0,1,0-10.07Z"/></g></svg>